# xmcd
#
# Track frame offsets:
#	150
#	11453
#	21059
#	34142
#	46414
#	64702
#	75905
#	94032
#	110580
#	125553
#	137163
#	146533
#	158421
#	172580
#	189119
#	198309
#	212672
#	229802
#
# Disc length: 3467 seconds
#
# Revision: 1
# Processed by: cddbd v1.5.2PL0 Copyright (c) Steve Scherf et al.
# Submitted via: audiograbber 1.83.01
#
DISCID=dc0d8912
DTITLE=Loukianos Kilaidonis - 18 megales epitixies (proto thema)
DYEAR=2017
DGENRE=GREEK MUSIC
TTITLE0=eimai enas ftoxos kai monos cowboy
TTITLE1=pou badizoume kirioi
TTITLE2=sto ri8mo tis disco
TTITLE3=sti vouliagmeni
TTITLE4=ta 8erina cinema
TTITLE5=to mats
TTITLE6=mia mera mias mairis
TTITLE7=to parti
TTITLE8=ax rita
TTITLE9=kapou tin exoume patisei
TTITLE10=tzin-tzin-tzin
TTITLE11=pws gennietai o kamikazi
TTITLE12=pros neo sin8eti
TTITLE13=ena gourouni ligotero
TTITLE14=ta nea metra
TTITLE15=8a katsw spiti
TTITLE16=tetarti 28 iouliou
TTITLE17=o ymnos twn maurwn skiliwn
EXTD=APO THN EFIMERIDA POU DEN GOUSTARE O SYGXOREMENOS...
EXTT0=
EXTT1=
EXTT2=
EXTT3=
EXTT4=
EXTT5=
EXTT6=
EXTT7=
EXTT8=
EXTT9=
EXTT10=
EXTT11=
EXTT12=
EXTT13=
EXTT14=
EXTT15=
EXTT16=
EXTT17=
PLAYORDER=
